<?xml version="1.0" encoding="utf-8"?>
<!-- Generator: Adobe Illustrator 19.0.0, SVG Export Plug-In . SVG Version: 6.00 Build 0)  -->
<svg version="1.1" id="Layer_1" xmlns="http://www.w3.org/2000/svg" xmlns:xlink="http://www.w3.org/1999/xlink" x="0px" y="0px"
	 viewBox="0 0 100 100" style="enable-background:new 0 0 100 100;" xml:space="preserve">
<style type="text/css">
	.st0{fill:#FFFFFF;}
	.st1{fill:#FF7A00;}
	.st2{fill:#FFFFFF;stroke:#FF7A00;stroke-width:14;stroke-miterlimit:10;}
</style>
<g id="XMLID_1_">
	<path id="XMLID_17_" class="st0" d="M50,93C26.3,93,7,73.7,7,50C7,26.3,26.3,7,50,7c23.7,0,43,19.3,43,43C93,73.7,73.7,93,50,93z"
		/>
	<path id="XMLID_14_" class="st1" d="M50,14c19.9,0,36,16.1,36,36S69.9,86,50,86S14,69.9,14,50S30.1,14,50,14 M50,0
		C22.4,0,0,22.4,0,50s22.4,50,50,50s50-22.4,50-50S77.6,0,50,0L50,0z"/>
</g>
<circle id="XMLID_2_" class="st2" cx="50" cy="50" r="17.9"/>
</svg>
